<svg version="1.1" id="Layer_1" xmlns="http://www.w3.org/2000/svg" xmlns:xlink="http://www.w3.org/1999/xlink" x="0px" y="0px"
	 width="100%" viewBox="0 0 512 512" enable-background="new 0 0 512 512" xml:space="preserve">
<path fill="#000000" opacity="1.000000" stroke="none" 
	d="
M345.000000,513.000000 
	C230.027939,513.000000 115.555870,513.000000 1.041900,513.000000 
	C1.041900,342.402924 1.041900,171.805817 1.041900,1.104355 
	C171.555405,1.104355 342.110901,1.104355 512.833191,1.104355 
	C512.833191,171.666534 512.833191,342.333252 512.833191,513.000000 
	C457.139069,513.000000 401.319550,513.000000 345.000000,513.000000 
M136.425354,357.000000 
	C150.054077,357.449341 161.338257,351.954468 170.756897,342.654083 
	C192.925171,320.764130 215.117004,298.886719 236.791031,276.511871 
	C249.179947,263.722351 271.049408,264.162720 283.136627,276.509094 
	C304.054749,297.875732 325.572296,318.656799 346.422943,340.087677 
	C357.782318,351.763123 370.939148,357.799316 387.269073,357.049133 
	C393.752899,356.751282 400.320221,356.487091 406.736206,357.211334 
	C410.196198,357.601868 412.000488,356.607605 414.177704,354.407806 
	C429.178711,339.250977 444.231201,324.143707 459.391327,309.146057 
	C473.328033,295.358704 481.725037,279.453827 482.213196,259.219757 
	C482.676300,240.025513 477.020691,223.431702 464.052063,209.773712 
	C447.309052,192.140747 429.771912,175.261261 412.530731,158.103561 
	C411.691315,157.268204 410.404755,156.349792 409.335632,156.360886 
	C399.739349,156.460358 390.130951,156.513077 380.554047,157.064697 
	C369.473389,157.702942 359.334595,161.341431 351.343658,169.245880 
	C328.246887,192.092667 305.380341,215.171936 282.368805,238.105148 
	C269.939026,250.492676 249.925491,250.681000 237.618713,238.204651 
	C215.389511,215.669144 193.005264,193.283356 170.455063,171.069229 
	C161.161255,161.913925 149.961533,156.663010 136.514053,156.960144 
	C127.188751,157.166183 117.794235,157.624420 108.551567,156.725967 
	C104.080025,156.291290 101.755463,157.608643 98.979729,160.418900 
	C83.174652,176.420609 67.178871,192.233871 51.358715,208.220810 
	C48.610653,210.997849 46.272644,214.210938 43.949181,217.372498 
	C34.852528,229.750427 31.718145,243.678711 31.825531,258.965179 
	C31.949959,276.677338 38.135075,291.764893 49.975098,304.241425 
	C66.712761,321.878876 84.250351,338.757629 101.486214,355.920349 
	C102.362465,356.792877 103.627281,357.878662 104.695145,357.861572 
	C114.946976,357.697723 125.195351,357.317932 136.425354,357.000000 
M148.227509,139.011627 
	C164.787506,142.389542 177.663727,151.602859 189.254990,163.576187 
	C208.958603,183.929230 229.229797,203.732864 249.266479,223.763382 
	C256.300201,230.794952 263.691467,230.802597 270.710266,223.785843 
	C293.693390,200.809525 316.573517,177.728943 339.706299,154.904404 
	C347.780090,146.938202 357.793701,142.063980 368.963257,140.068741 
	C376.326477,138.753418 383.820160,138.168381 391.513123,137.224747 
	C391.055237,136.702362 390.584900,136.099838 390.048584,135.563309 
	C361.534698,107.040329 333.034363,78.503708 304.460236,50.041206 
	C302.159424,47.749386 299.408203,45.886631 296.761688,43.968899 
	C284.190796,34.859848 270.119415,31.631496 254.651443,31.832424 
	C236.557526,32.067463 221.308609,38.612171 208.742111,50.931965 
	C180.895950,78.231491 153.508499,105.998947 125.944771,133.586349 
	C124.853561,134.678497 123.872879,135.881073 122.458481,137.458450 
	C131.318283,138.007751 139.331589,138.504578 148.227509,139.011627 
M139.500000,394.000000 
	C162.350861,416.851929 185.173859,439.731903 208.088760,462.519409 
	C210.864868,465.280090 214.024765,467.695923 217.198547,470.008392 
	C229.737549,479.144501 243.813065,482.362885 259.275452,482.168030 
	C277.548889,481.937714 292.866028,475.262909 305.552124,462.796265 
	C333.352325,435.476990 360.751587,407.749695 388.309692,380.184113 
	C389.427765,379.065735 390.496185,377.897705 391.805237,376.524658 
	C386.086945,375.985474 380.899200,375.474609 375.707214,375.010864 
	C360.967499,373.694489 348.342010,367.704559 337.903900,357.349976 
	C315.435181,335.061005 292.976685,312.757629 270.835388,290.145447 
	C265.062317,284.249634 255.152878,283.964539 249.173294,290.098083 
	C226.849533,312.996521 204.227722,335.613342 181.309906,357.916748 
	C176.268356,362.823151 169.867233,366.627045 163.537720,369.849548 
	C152.791885,375.320404 141.035172,376.630585 129.055435,376.014374 
	C127.072510,375.912384 125.079834,376.000000 123.091667,376.000000 
	C122.901688,376.544525 122.711708,377.089050 122.521736,377.633545 
	C128.014481,382.922363 133.507233,388.211212 139.500000,394.000000 
z"/>
<path fill="#00BDAE" opacity="1.000000" stroke="none" 
	d="
M135.935028,357.000000 
	C125.195351,357.317932 114.946976,357.697723 104.695145,357.861572 
	C103.627281,357.878662 102.362465,356.792877 101.486214,355.920349 
	C84.250351,338.757629 66.712761,321.878876 49.975098,304.241425 
	C38.135075,291.764893 31.949959,276.677338 31.825531,258.965179 
	C31.718145,243.678711 34.852528,229.750427 43.949181,217.372498 
	C46.272644,214.210938 48.610653,210.997849 51.358715,208.220810 
	C67.178871,192.233871 83.174652,176.420609 98.979729,160.418900 
	C101.755463,157.608643 104.080025,156.291290 108.551567,156.725967 
	C117.794235,157.624420 127.188751,157.166183 136.514053,156.960144 
	C149.961533,156.663010 161.161255,161.913925 170.455063,171.069229 
	C193.005264,193.283356 215.389511,215.669144 237.618713,238.204651 
	C249.925491,250.681000 269.939026,250.492676 282.368805,238.105148 
	C305.380341,215.171936 328.246887,192.092667 351.343658,169.245880 
	C359.334595,161.341431 369.473389,157.702942 380.554047,157.064697 
	C390.130951,156.513077 399.739349,156.460358 409.335632,156.360886 
	C410.404755,156.349792 411.691315,157.268204 412.530731,158.103561 
	C429.771912,175.261261 447.309052,192.140747 464.052063,209.773712 
	C477.020691,223.431702 482.676300,240.025513 482.213196,259.219757 
	C481.725037,279.453827 473.328033,295.358704 459.391327,309.146057 
	C444.231201,324.143707 429.178711,339.250977 414.177704,354.407806 
	C412.000488,356.607605 410.196198,357.601868 406.736206,357.211334 
	C400.320221,356.487091 393.752899,356.751282 387.269073,357.049133 
	C370.939148,357.799316 357.782318,351.763123 346.422943,340.087677 
	C325.572296,318.656799 304.054749,297.875732 283.136627,276.509094 
	C271.049408,264.162720 249.179947,263.722351 236.791031,276.511871 
	C215.117004,298.886719 192.925171,320.764130 170.756897,342.654083 
	C161.338257,351.954468 150.054077,357.449341 135.935028,357.000000 
z"/>
<path fill="#00BDAE" opacity="1.000000" stroke="none" 
	d="
M147.786194,139.006516 
	C139.331589,138.504578 131.318283,138.007751 122.458481,137.458450 
	C123.872879,135.881073 124.853561,134.678497 125.944771,133.586349 
	C153.508499,105.998947 180.895950,78.231491 208.742111,50.931965 
	C221.308609,38.612171 236.557526,32.067463 254.651443,31.832424 
	C270.119415,31.631496 284.190796,34.859848 296.761688,43.968899 
	C299.408203,45.886631 302.159424,47.749386 304.460236,50.041206 
	C333.034363,78.503708 361.534698,107.040329 390.048584,135.563309 
	C390.584900,136.099838 391.055237,136.702362 391.513123,137.224747 
	C383.820160,138.168381 376.326477,138.753418 368.963257,140.068741 
	C357.793701,142.063980 347.780090,146.938202 339.706299,154.904404 
	C316.573517,177.728943 293.693390,200.809525 270.710266,223.785843 
	C263.691467,230.802597 256.300201,230.794952 249.266479,223.763382 
	C229.229797,203.732864 208.958603,183.929230 189.254990,163.576187 
	C177.663727,151.602859 164.787506,142.389542 147.786194,139.006516 
z"/>
<path fill="#00BDAE" opacity="1.000000" stroke="none" 
	d="
M139.250000,393.750000 
	C133.507233,388.211212 128.014481,382.922363 122.521736,377.633545 
	C122.711708,377.089050 122.901688,376.544525 123.091667,376.000000 
	C125.079834,376.000000 127.072510,375.912384 129.055435,376.014374 
	C141.035172,376.630585 152.791885,375.320404 163.537720,369.849548 
	C169.867233,366.627045 176.268356,362.823151 181.309906,357.916748 
	C204.227722,335.613342 226.849533,312.996521 249.173294,290.098083 
	C255.152878,283.964539 265.062317,284.249634 270.835388,290.145447 
	C292.976685,312.757629 315.435181,335.061005 337.903900,357.349976 
	C348.342010,367.704559 360.967499,373.694489 375.707214,375.010864 
	C380.899200,375.474609 386.086945,375.985474 391.805237,376.524658 
	C390.496185,377.897705 389.427765,379.065735 388.309692,380.184113 
	C360.751587,407.749695 333.352325,435.476990 305.552124,462.796265 
	C292.866028,475.262909 277.548889,481.937714 259.275452,482.168030 
	C243.813065,482.362885 229.737549,479.144501 217.198547,470.008392 
	C214.024765,467.695923 210.864868,465.280090 208.088760,462.519409 
	C185.173859,439.731903 162.350861,416.851929 139.250000,393.750000 
z"/>
</svg>