<svg version="1.1" id="Layer_1" xmlns="http://www.w3.org/2000/svg" xmlns:xlink="http://www.w3.org/1999/xlink" x="0px" y="0px"
	 width="100%" viewBox="0 0 1280 994" enable-background="new 0 0 1280 994" xml:space="preserve">
<path fill="#EB001B" opacity="1.000000" stroke="none" 
	d="
M0.999996,437.000000 
	C1.000000,410.312439 1.000000,383.624878 1.409190,356.618988 
	C2.211137,355.291382 2.827458,354.310852 2.961342,353.268341 
	C4.046243,344.820648 4.506194,336.254974 6.163747,327.925659 
	C10.967080,303.788574 17.127071,280.038544 25.820971,256.911621 
	C35.586338,230.934448 47.970966,206.317459 62.721344,182.937653 
	C78.350243,158.165359 97.081467,135.750275 117.624794,114.880371 
	C121.675987,110.764771 126.078873,106.990288 130.387604,103.134521 
	C135.906647,98.195671 141.145370,92.850319 147.121460,88.533722 
	C162.186295,77.652206 177.250687,66.700539 192.956329,56.793274 
	C212.612930,44.393719 233.647720,34.480202 255.419739,26.321491 
	C276.799042,18.309948 298.555389,11.471684 321.199371,7.923011 
	C332.179077,6.202317 343.189148,4.674889 354.164856,2.930081 
	C355.186371,2.767689 356.058502,1.665715 357.000000,1.000001 
	C383.354218,1.000000 409.708466,1.000000 436.391357,1.414310 
	C437.231445,2.196845 437.703491,2.807491 438.260040,2.897897 
	C452.938629,5.282331 467.693176,7.258771 482.297333,10.029082 
	C509.827728,15.251416 536.094910,24.602846 561.476501,36.270775 
	C589.938660,49.354866 616.747375,65.298508 641.147827,85.249359 
	C641.097351,85.479622 641.058533,85.949478 640.763367,86.118729 
	C595.755310,122.107109 560.091064,165.374466 533.957825,216.367477 
	C518.410522,246.704422 506.780640,278.489197 499.529816,311.875763 
	C494.907196,333.160736 491.689423,354.570557 490.968719,376.362366 
	C490.110626,402.307312 490.323090,428.225769 494.169128,453.932312 
	C497.660278,477.266785 503.086823,500.173370 510.694824,522.578430 
	C532.626282,587.164917 568.511780,642.652832 618.642334,688.868408 
	C625.703735,695.378296 633.534546,701.053589 641.011047,707.401367 
	C641.009094,708.069275 641.005249,708.450867 640.691772,708.987427 
	C629.173706,717.014404 618.154724,725.174194 606.717834,732.698914 
	C582.733948,748.478516 556.866516,760.479797 529.848083,770.095215 
	C506.562744,778.382080 482.828278,784.867859 458.278168,788.017029 
	C443.796051,789.874695 429.300232,792.100952 414.745911,792.784119 
	C400.686310,793.444092 386.495331,792.952393 372.450195,791.846741 
	C355.636902,790.523193 338.816406,788.623413 322.178619,785.882874 
	C291.286346,780.794434 261.727448,770.985107 233.297363,757.985413 
	C212.299026,748.383911 192.139450,737.230225 173.054245,724.094482 
	C146.299301,705.679932 121.695305,684.830872 100.757393,660.019348 
	C87.579758,644.403748 74.840538,628.284546 63.378345,611.391296 
	C51.011803,593.165222 40.412998,573.718933 32.586365,553.003479 
	C26.431349,536.712463 20.158327,520.413208 15.161003,503.750763 
	C8.816688,482.597137 4.607953,460.908173 2.901656,438.806488 
	C2.851691,438.159271 1.659575,437.600189 0.999996,437.000000 
z"/>
<path fill="#F79E1B" opacity="1.000000" stroke="none" 
	d="
M641.058533,85.949478 
	C641.058533,85.949478 641.097351,85.479622 641.442871,85.106430 
	C658.808716,70.443909 677.406372,58.382854 697.033875,48.189060 
	C713.860535,39.449902 731.190796,31.392406 748.967224,24.851280 
	C766.542419,18.384239 784.803284,13.553529 803.052124,9.221113 
	C816.163940,6.108278 829.754333,5.020383 843.113831,2.918296 
	C843.825562,2.806318 844.375000,1.663116 845.000000,0.999986 
	C871.354248,1.000000 897.708435,1.000000 924.208496,1.356264 
	C925.036926,2.128594 925.681702,2.817920 926.408142,2.918706 
	C934.174988,3.996291 942.070496,4.445337 949.707886,6.097332 
	C968.069824,10.069077 986.513550,13.889979 1004.556519,19.056252 
	C1032.602173,27.086588 1058.931519,39.327862 1084.178223,53.976982 
	C1108.262939,67.951828 1130.821899,84.070526 1151.192505,102.956360 
	C1168.033447,118.569786 1184.005371,135.105881 1198.081299,153.428009 
	C1217.894043,179.217880 1234.624023,206.761673 1247.855591,236.456665 
	C1258.377075,260.069183 1266.660400,284.442932 1271.929565,309.741638 
	C1274.815063,323.594757 1276.651733,337.665375 1279.071411,351.618805 
	C1279.223755,352.497589 1280.334961,353.210114 1281.000000,354.000000 
	C1281.000000,382.020905 1281.000000,410.041779 1280.650146,438.199829 
	C1279.868408,439.350739 1279.181030,440.331543 1279.045288,441.383575 
	C1277.956665,449.818237 1277.509766,458.373260 1275.855225,466.690277 
	C1270.917847,491.508789 1264.491821,515.901245 1255.276978,539.575134 
	C1245.389648,564.977478 1233.183472,589.124573 1218.462402,612.005371 
	C1202.105469,637.428528 1183.247437,660.840698 1161.024048,681.414673 
	C1152.075195,689.699280 1142.972290,697.830078 1133.700195,705.750488 
	C1113.168945,723.288696 1090.281128,737.385803 1066.414185,749.741821 
	C1044.073853,761.307434 1020.618408,770.281372 996.402100,777.388367 
	C966.176636,786.258972 935.309448,791.315369 903.995850,792.723816 
	C885.375793,793.561279 866.602905,792.113770 847.955994,790.849548 
	C835.773865,790.023682 823.646423,787.973022 811.578186,785.967407 
	C780.529297,780.807434 750.906128,770.896240 722.285339,757.997009 
	C693.226379,744.900208 666.225525,728.313477 641.001465,708.832520 
	C641.005249,708.450867 641.009094,708.069275 641.350830,707.321472 
	C642.529785,706.427856 643.427979,705.973022 644.203369,705.362244 
	C662.169189,691.209961 678.353638,675.213989 693.554382,658.150330 
	C715.283875,633.757874 733.564697,606.999939 748.361267,577.937988 
	C767.146912,541.040894 780.469177,502.312592 786.244568,461.131531 
	C790.031921,434.126434 793.744141,407.133972 790.991760,379.778595 
	C789.049744,360.478363 787.885132,341.017395 784.496216,321.962067 
	C777.059265,280.144989 762.240417,240.805374 741.511719,203.710571 
	C727.238403,178.167740 710.340759,154.471710 690.890381,132.649948 
	C675.698364,115.605881 659.359558,99.711983 641.058533,85.949478 
z"/>
<path fill="#000000" opacity="1.000000" stroke="none" 
	d="
M640.691772,708.987427 
	C666.225525,728.313477 693.226379,744.900208 722.285339,757.997009 
	C750.906128,770.896240 780.529297,780.807434 811.578186,785.967407 
	C823.646423,787.973022 835.773865,790.023682 847.955994,790.849548 
	C866.602905,792.113770 885.375793,793.561279 903.995850,792.723816 
	C935.309448,791.315369 966.176636,786.258972 996.402100,777.388367 
	C1020.618408,770.281372 1044.073853,761.307434 1066.414185,749.741821 
	C1090.281128,737.385803 1113.168945,723.288696 1133.700195,705.750488 
	C1142.972290,697.830078 1152.075195,689.699280 1161.024048,681.414673 
	C1183.247437,660.840698 1202.105469,637.428528 1218.462402,612.005371 
	C1233.183472,589.124573 1245.389648,564.977478 1255.276978,539.575134 
	C1264.491821,515.901245 1270.917847,491.508789 1275.855225,466.690277 
	C1277.509766,458.373260 1277.956665,449.818237 1279.045288,441.383575 
	C1279.181030,440.331543 1279.868408,439.350739 1280.650146,438.668457 
	C1281.000000,624.299500 1281.000000,809.598999 1281.000000,994.949219 
	C854.445068,994.949219 427.890137,994.949219 1.000000,994.949219 
	C1.000000,809.312561 1.000000,623.624939 0.999996,437.468658 
	C1.659575,437.600189 2.851691,438.159271 2.901656,438.806488 
	C4.607953,460.908173 8.816688,482.597137 15.161003,503.750763 
	C20.158327,520.413208 26.431349,536.712463 32.586365,553.003479 
	C40.412998,573.718933 51.011803,593.165222 63.378345,611.391296 
	C74.840538,628.284546 87.579758,644.403748 100.757393,660.019348 
	C121.695305,684.830872 146.299301,705.679932 173.054245,724.094482 
	C192.139450,737.230225 212.299026,748.383911 233.297363,757.985413 
	C261.727448,770.985107 291.286346,780.794434 322.178619,785.882874 
	C338.816406,788.623413 355.636902,790.523193 372.450195,791.846741 
	C386.495331,792.952393 400.686310,793.444092 414.745911,792.784119 
	C429.300232,792.100952 443.796051,789.874695 458.278168,788.017029 
	C482.828278,784.867859 506.562744,778.382080 529.848083,770.095215 
	C556.866516,760.479797 582.733948,748.478516 606.717834,732.698914 
	C618.154724,725.174194 629.173706,717.014404 640.691772,708.987427 
z"/>
<path fill="#000000" opacity="1.000000" stroke="none" 
	d="
M1281.000000,353.531311 
	C1280.334961,353.210114 1279.223755,352.497589 1279.071411,351.618805 
	C1276.651733,337.665375 1274.815063,323.594757 1271.929565,309.741638 
	C1266.660400,284.442932 1258.377075,260.069183 1247.855591,236.456665 
	C1234.624023,206.761673 1217.894043,179.217880 1198.081299,153.428009 
	C1184.005371,135.105881 1168.033447,118.569786 1151.192505,102.956360 
	C1130.821899,84.070526 1108.262939,67.951828 1084.178223,53.976982 
	C1058.931519,39.327862 1032.602173,27.086588 1004.556519,19.056252 
	C986.513550,13.889979 968.069824,10.069077 949.707886,6.097332 
	C942.070496,4.445337 934.174988,3.996291 926.408142,2.918706 
	C925.681702,2.817920 925.036926,2.128594 924.677124,1.356264 
	C1043.593384,1.000000 1162.186890,1.000000 1281.000000,1.000000 
	C1281.000000,118.354134 1281.000000,235.708405 1281.000000,353.531311 
z"/>
<path fill="#000000" opacity="1.000000" stroke="none" 
	d="
M356.531342,1.000001 
	C356.058502,1.665715 355.186371,2.767689 354.164856,2.930081 
	C343.189148,4.674889 332.179077,6.202317 321.199371,7.923011 
	C298.555389,11.471684 276.799042,18.309948 255.419739,26.321491 
	C233.647720,34.480202 212.612930,44.393719 192.956329,56.793274 
	C177.250687,66.700539 162.186295,77.652206 147.121460,88.533722 
	C141.145370,92.850319 135.906647,98.195671 130.387604,103.134521 
	C126.078873,106.990288 121.675987,110.764771 117.624794,114.880371 
	C97.081467,135.750275 78.350243,158.165359 62.721344,182.937653 
	C47.970966,206.317459 35.586338,230.934448 25.820971,256.911621 
	C17.127071,280.038544 10.967080,303.788574 6.163747,327.925659 
	C4.506194,336.254974 4.046243,344.820648 2.961342,353.268341 
	C2.827458,354.310852 2.211137,355.291382 1.409190,356.150330 
	C1.000000,237.739487 1.000000,119.478981 1.000000,1.000000 
	C119.354141,1.000000 237.708405,1.000000 356.531342,1.000001 
z"/>
<path fill="#000000" opacity="1.000000" stroke="none" 
	d="
M844.531372,0.999986 
	C844.375000,1.663116 843.825562,2.806318 843.113831,2.918296 
	C829.754333,5.020383 816.163940,6.108278 803.052124,9.221113 
	C784.803284,13.553529 766.542419,18.384239 748.967224,24.851280 
	C731.190796,31.392406 713.860535,39.449902 697.033875,48.189060 
	C677.406372,58.382854 658.808716,70.443909 641.493408,84.876167 
	C616.747375,65.298508 589.938660,49.354866 561.476501,36.270775 
	C536.094910,24.602846 509.827728,15.251416 482.297333,10.029082 
	C467.693176,7.258771 452.938629,5.282331 438.260040,2.897897 
	C437.703491,2.807491 437.231445,2.196845 436.859985,1.414310 
	C572.687561,1.000000 708.375122,1.000000 844.531372,0.999986 
z"/>
<path fill="#FF5A00" opacity="1.000000" stroke="none" 
	d="
M640.763367,86.118729 
	C659.359558,99.711983 675.698364,115.605881 690.890381,132.649948 
	C710.340759,154.471710 727.238403,178.167740 741.511719,203.710571 
	C762.240417,240.805374 777.059265,280.144989 784.496216,321.962067 
	C787.885132,341.017395 789.049744,360.478363 790.991760,379.778595 
	C793.744141,407.133972 790.031921,434.126434 786.244568,461.131531 
	C780.469177,502.312592 767.146912,541.040894 748.361267,577.937988 
	C733.564697,606.999939 715.283875,633.757874 693.554382,658.150330 
	C678.353638,675.213989 662.169189,691.209961 644.203369,705.362244 
	C643.427979,705.973022 642.529785,706.427856 641.348999,707.035278 
	C633.534546,701.053589 625.703735,695.378296 618.642334,688.868408 
	C568.511780,642.652832 532.626282,587.164917 510.694824,522.578430 
	C503.086823,500.173370 497.660278,477.266785 494.169128,453.932312 
	C490.323090,428.225769 490.110626,402.307312 490.968719,376.362366 
	C491.689423,354.570557 494.907196,333.160736 499.529816,311.875763 
	C506.780640,278.489197 518.410522,246.704422 533.957825,216.367477 
	C560.091064,165.374466 595.755310,122.107109 640.763367,86.118729 
z"/>
</svg>