<svg version="1.1" id="Layer_1" xmlns="http://www.w3.org/2000/svg" xmlns:xlink="http://www.w3.org/1999/xlink" x="0px" y="0px"
	 width="100%" viewBox="0 0 245 200" enable-background="new 0 0 245 200" xml:space="preserve">
<path fill="#FEFEFE" opacity="1.000000" stroke="none" 
	d="
M149.000000,201.000000 
	C99.333336,201.000000 50.166672,201.000000 1.000007,201.000000 
	C1.000004,134.333344 1.000004,67.666679 1.000002,1.000015 
	C82.666656,1.000010 164.333313,1.000010 245.999969,1.000005 
	C245.999985,67.666649 245.999985,134.333298 246.000000,200.999969 
	C213.833328,201.000000 181.666672,201.000000 149.000000,201.000000 
M51.366756,125.480331 
	C51.377495,127.479492 51.387775,129.478653 51.399044,131.477814 
	C51.560562,160.137039 71.612717,180.052094 100.353760,180.072662 
	C120.346848,180.086960 140.340073,180.116455 160.333023,180.059113 
	C186.528854,179.983994 207.131241,159.872223 207.455154,133.737183 
	C207.713226,112.914268 207.732361,92.083244 207.479019,71.260429 
	C207.158157,44.889404 187.228806,24.823977 160.847900,24.414726 
	C139.860184,24.089138 118.859741,24.089552 97.871765,24.402512 
	C72.983208,24.773638 53.145027,43.144493 51.787991,68.025635 
	C50.764153,86.797653 51.444778,105.662636 51.366756,125.480331 
z"/>
<path fill="#080808" opacity="1.000000" stroke="none" 
	d="
M51.366756,124.983284 
	C51.444778,105.662636 50.764153,86.797653 51.787991,68.025635 
	C53.145027,43.144493 72.983208,24.773638 97.871765,24.402512 
	C118.859741,24.089552 139.860184,24.089138 160.847900,24.414726 
	C187.228806,24.823977 207.158157,44.889404 207.479019,71.260429 
	C207.732361,92.083244 207.713226,112.914268 207.455154,133.737183 
	C207.131241,159.872223 186.528854,179.983994 160.333023,180.059113 
	C140.340073,180.116455 120.346848,180.086960 100.353760,180.072662 
	C71.612717,180.052094 51.560562,160.137039 51.399044,131.477814 
	C51.387775,129.478653 51.377495,127.479492 51.366756,124.983284 
M72.087219,52.677162 
	C67.799011,58.750107 66.092918,65.548943 66.116539,72.927696 
	C66.180000,92.758911 66.097656,112.590584 66.153786,132.421844 
	C66.206856,151.172379 79.832703,165.151413 98.468262,165.305969 
	C119.131523,165.477341 139.798431,165.478348 160.461670,165.305984 
	C178.844223,165.152649 192.678345,151.230530 192.783752,132.907806 
	C192.900696,112.577095 192.885788,92.244843 192.789154,71.913925 
	C192.699402,53.028931 178.757004,39.161034 159.825104,39.086552 
	C139.660690,39.007221 119.495689,39.056587 99.330963,39.073425 
	C88.300949,39.082638 79.293755,43.304535 72.087219,52.677162 
z"/>
<path fill="#FBFBFB" opacity="1.000000" stroke="none" 
	d="
M72.301987,52.386139 
	C79.293755,43.304535 88.300949,39.082638 99.330963,39.073425 
	C119.495689,39.056587 139.660690,39.007221 159.825104,39.086552 
	C178.757004,39.161034 192.699402,53.028931 192.789154,71.913925 
	C192.885788,92.244843 192.900696,112.577095 192.783752,132.907806 
	C192.678345,151.230530 178.844223,165.152649 160.461670,165.305984 
	C139.798431,165.478348 119.131523,165.477341 98.468262,165.305969 
	C79.832703,165.151413 66.206856,151.172379 66.153786,132.421844 
	C66.097656,112.590584 66.180000,92.758911 66.116539,72.927696 
	C66.092918,65.548943 67.799011,58.750107 72.301987,52.386139 
M94.873772,117.494606 
	C104.142159,136.740723 124.338142,145.306564 143.554214,138.141769 
	C162.053955,131.244049 172.354553,111.462883 167.291489,92.556976 
	C161.636154,71.439407 139.540192,59.100224 118.924156,65.546883 
	C97.138306,72.359344 86.571594,94.573616 94.873772,117.494606 
M163.764938,55.487507 
	C160.921066,60.275074 161.084732,64.528893 164.235870,67.727333 
	C167.246506,70.783195 171.982162,71.320618 175.635178,69.020996 
	C180.018341,66.261742 181.273987,60.737030 178.493103,56.446430 
	C175.340805,51.582775 169.997437,50.997906 163.764938,55.487507 
z"/>
<path fill="#090909" opacity="1.000000" stroke="none" 
	d="
M94.711823,117.141632 
	C86.571594,94.573616 97.138306,72.359344 118.924156,65.546883 
	C139.540192,59.100224 161.636154,71.439407 167.291489,92.556976 
	C172.354553,111.462883 162.053955,131.244049 143.554214,138.141769 
	C124.338142,145.306564 104.142159,136.740723 94.711823,117.141632 
M109.804771,88.472404 
	C103.683640,98.848061 104.290131,109.788857 111.450745,118.165581 
	C118.134094,125.983955 129.087463,128.802872 138.702393,125.178917 
	C148.360168,121.538818 154.855179,112.155716 154.740448,102.009277 
	C154.625336,91.829704 148.024872,82.657310 138.277161,79.130981 
	C128.272003,75.511513 117.801636,78.774857 109.804771,88.472404 
z"/>
<path fill="#0B0B0B" opacity="1.000000" stroke="none" 
	d="
M164.015808,55.188385 
	C169.997437,50.997906 175.340805,51.582775 178.493103,56.446430 
	C181.273987,60.737030 180.018341,66.261742 175.635178,69.020996 
	C171.982162,71.320618 167.246506,70.783195 164.235870,67.727333 
	C161.084732,64.528893 160.921066,60.275074 164.015808,55.188385 
z"/>
<path fill="#FAFAFA" opacity="1.000000" stroke="none" 
	d="
M110.018723,88.172066 
	C117.801636,78.774857 128.272003,75.511513 138.277161,79.130981 
	C148.024872,82.657310 154.625336,91.829704 154.740448,102.009277 
	C154.855179,112.155716 148.360168,121.538818 138.702393,125.178917 
	C129.087463,128.802872 118.134094,125.983955 111.450745,118.165581 
	C104.290131,109.788857 103.683640,98.848061 110.018723,88.172066 
z"/>
</svg>